<?xml version="1.0" standalone="no"?>
<!DOCTYPE svg PUBLIC "-//W3C//DTD SVG 20010904//EN"
 "http://www.w3.org/TR/2001/REC-SVG-20010904/DTD/svg10.dtd">
<svg version="1.0" xmlns="http://www.w3.org/2000/svg"
 width="512.000000pt" height="512.000000pt" viewBox="0 0 512.000000 512.000000"
 preserveAspectRatio="xMidYMid meet">

<g transform="translate(0.000000,512.000000) scale(0.100000,-0.100000)"
fill="#000000" stroke="none">
<path d="M1731 5109 c-141 -27 -288 -144 -355 -280 -41 -85 -56 -164 -56 -296
l0 -93 -333 0 -334 0 -267 -1604 c-147 -882 -270 -1613 -273 -1625 l-5 -21
1036 0 1036 0 0 -380 0 -380 -130 0 -130 0 0 -215 0 -215 640 0 640 0 0 215 0
215 -130 0 -130 0 0 380 0 380 1036 0 1036 0 -5 21 c-3 12 -126 743 -273 1625
l-267 1604 -1490 0 -1490 0 6 118 c6 145 28 210 95 281 69 73 145 105 247 105
65 0 90 -4 137 -26 109 -50 180 -147 199 -269 5 -35 14 -74 21 -86 28 -56 125
-45 146 17 18 51 -2 161 -46 250 -103 210 -333 324 -561 279z m-411 -1139 c0
-334 4 -363 57 -377 39 -10 64 -5 90 20 22 20 23 24 25 336 l3 316 1412 3
1413 2 5 -22 c11 -49 375 -2249 375 -2268 0 -20 -1 -20 -2140 -20 -2139 0
-2140 0 -2140 20 0 19 364 2219 375 2268 l5 22 260 0 260 0 0 -300z m3434
-2367 c21 -104 40 -198 43 -210 l5 -23 -2242 0 -2242 0 5 23 c3 12 22 106 43
210 l37 187 2157 0 2157 0 37 -187z m-1984 -793 l0 -380 -210 0 -210 0 0 380
0 380 210 0 210 0 0 -380z m260 -595 l0 -45 -470 0 -470 0 0 45 0 45 470 0
470 0 0 -45z"/>
</g>
</svg>
